<?xml version="1.0" standalone="no"?>
<!DOCTYPE svg PUBLIC "-//W3C//DTD SVG 20010904//EN"
 "http://www.w3.org/TR/2001/REC-SVG-20010904/DTD/svg10.dtd">
<svg version="1.0" xmlns="http://www.w3.org/2000/svg"
 width="1024.000000pt" height="1024.000000pt" viewBox="0 0 1024.000000 1024.000000"
 preserveAspectRatio="xMidYMid meet">
<metadata>
Created by potrace 1.11, written by Peter Selinger 2001-2013
</metadata>
<g transform="translate(0.000000,1024.000000) scale(0.100000,-0.100000)"
fill="#000000" stroke="none">
<path d="M1407 8423 c-4 -3 -7 -377 -7 -830 l0 -823 3710 0 c2041 0 3713 0
3718 0 4 0 7 372 7 828 l0 827 -3711 3 c-2041 1 -3714 -1 -3717 -5z"/>
<path d="M1407 5943 c-4 -3 -7 -190 -7 -415 l0 -408 1653 0 c910 0 1656 2
1658 4 2 2 3 189 1 415 l-2 411 -1649 0 c-906 0 -1651 -3 -1654 -7z"/>
<path d="M5530 5535 l0 -415 1655 0 1655 0 0 415 0 415 -1655 0 -1655 0 0
-415z"/>
<path d="M1407 4273 c-4 -3 -7 -183 -7 -400 l0 -393 1035 2 1035 3 0 395 0
395 -1028 3 c-566 1 -1032 -1 -1035 -5z"/>
<path d="M4100 3880 l0 -400 1020 0 1020 0 0 400 0 400 -1020 0 -1020 0 0
-400z"/>
<path d="M6770 3880 l0 -400 1035 0 1035 0 0 400 0 400 -1035 0 -1035 0 0
-400z"/>
<path d="M1404 2631 c-5 -6 -5 -816 0 -822 2 -2 189 -3 415 -1 l411 2 0 410 0
410 -411 2 c-226 2 -413 1 -415 -1z"/>
<path d="M4724 2625 c-3 -6 -3 -191 -2 -413 l3 -403 395 0 395 1 0 410 0 410
-394 3 c-256 1 -395 -2 -397 -8z"/>
<path d="M8413 2632 l-403 -2 0 -410 0 -410 400 -1 c220 -1 406 -2 413 -3 9
-1 12 88 12 413 0 269 -4 415 -10 415 -5 1 -191 0 -412 -2z"/>
<path d="M3050 2220 l0 -410 415 0 415 0 0 410 0 410 -415 0 -415 0 0 -410z"/>
<path d="M6362 2223 l3 -408 413 -3 412 -2 0 410 0 410 -415 0 -415 0 2 -407z"/>
</g>
</svg>
